<svg id="Capa_1" data-name="Capa 1" xmlns="http://www.w3.org/2000/svg" xmlns:xlink="http://www.w3.org/1999/xlink" viewBox="0 0 1511 1222"><defs><style>.cls-1,.cls-2{fill:#ffe300;}.cls-1{opacity:0.2;}.cls-2,.cls-7{opacity:0.5;}.cls-3{fill:#fff;}.cls-4{fill:#0088d1;}.cls-5{fill:#1859cf;}.cls-6{fill:#0038cf;}.cls-8{fill:url(#Degradado_sin_nombre_75);}.cls-9{fill:url(#Degradado_sin_nombre_75-2);}.cls-10{fill:url(#Degradado_sin_nombre_75-3);}.cls-11{fill:url(#Degradado_sin_nombre_75-4);}.cls-12{fill:url(#Degradado_sin_nombre_78);}.cls-13{fill:url(#Degradado_sin_nombre_78-2);}</style><linearGradient id="Degradado_sin_nombre_75" x1="839" y1="260.17" x2="839" y2="760.66" gradientUnits="userSpaceOnUse"><stop offset="0.28" stop-color="#0038cf" stop-opacity="0"/><stop offset="0.45" stop-color="#0037cc" stop-opacity="0.03"/><stop offset="0.58" stop-color="#0035c4" stop-opacity="0.12"/><stop offset="0.7" stop-color="#0031b5" stop-opacity="0.27"/><stop offset="0.81" stop-color="#002ca1" stop-opacity="0.48"/><stop offset="0.92" stop-color="#002587" stop-opacity="0.75"/><stop offset="0.99" stop-color="#001f6f"/></linearGradient><linearGradient id="Degradado_sin_nombre_75-2" x1="661.13" y1="260.17" x2="661.13" y2="760.66" xlink:href="#Degradado_sin_nombre_75"/><linearGradient id="Degradado_sin_nombre_75-3" x1="468" y1="260.17" x2="468" y2="760.66" xlink:href="#Degradado_sin_nombre_75"/><linearGradient id="Degradado_sin_nombre_75-4" x1="299" y1="260.17" x2="299" y2="760.66" xlink:href="#Degradado_sin_nombre_75"/><linearGradient id="Degradado_sin_nombre_78" x1="1117.58" y1="927.45" x2="1117.58" y2="992.06" gradientUnits="userSpaceOnUse"><stop offset="0" stop-color="#ffce28"/><stop offset="0.38" stop-color="#ffcb28"/><stop offset="0.67" stop-color="#ffc128"/><stop offset="0.94" stop-color="#ffb028"/><stop offset="0.99" stop-color="#ffac28"/></linearGradient><linearGradient id="Degradado_sin_nombre_78-2" x1="849.4" y1="246" x2="849.4" y2="1067.65" xlink:href="#Degradado_sin_nombre_78"/></defs><title>Daily Sun logo</title><circle class="cls-1" cx="863.11" cy="575.89" r="463.89"/><circle class="cls-2" cx="852.27" cy="614.67" r="448.33"/><path class="cls-3" d="M1267,674c0,236.65-191.85,428.5-428.5,428.5S410,910.65,410,674c0-164.33-11-478.83,137-438,24.18,6.67,47.67,15.43,77.42,32.07,8,4.5,15.82,9.46,23.49,14.57,6.13,4.07,8.38,3.41,10.67,2.35A426.94,426.94,0,0,1,838.5,245.5C1075.15,245.5,1267,437.34,1267,674Z"/><path class="cls-4" d="M1026,617.5A168.5,168.5,0,0,1,857.5,786H652c0-93.06,112.44-337,205.5-337A168.5,168.5,0,0,1,1026,617.5Z"/><path class="cls-5" d="M892,550.65C892,680.63,789,786,662,786H471.65c-53.92-43.07-39.71-159.93-39.71-235.35,0-130,103-235.36,230-235.36S892,420.66,892,550.65Z"/><path class="cls-6" d="M739,515c0,149.67-121.33,271-271,271H299c-67.57-49.28-102-181-102-271,0-149.67,121.33-271,271-271S739,365.33,739,515Z"/><circle class="cls-4" cx="299" cy="597" r="189"/><g class="cls-7"><path class="cls-8" d="M1026,617.5A168.5,168.5,0,0,1,857.5,786H652c0-93.06,112.44-337,205.5-337A168.5,168.5,0,0,1,1026,617.5Z"/><path class="cls-9" d="M892,550.65C892,680.63,789,786,662,786H471.65c-53.92-43.07-39.71-159.93-39.71-235.35,0-130,103-235.36,230-235.36S892,420.66,892,550.65Z"/><path class="cls-10" d="M739,515c0,149.67-121.33,271-271,271H299c-67.57-49.28-102-181-102-271,0-149.67,121.33-271,271-271S739,365.33,739,515Z"/><circle class="cls-11" cx="299" cy="597" r="189"/></g><path class="cls-3" d="M455.29,552.64c2.9-1.09,4.43-.55,4.62,1.63a4.71,4.71,0,0,1-3,4.88q-5.43,3.27-14.66,8.15t-18.2,9.51q-9,4.62-15.76,8.42t-6.79,4.89q-6,26.07-21.19,56.77a216.15,216.15,0,0,1-36.94,53.51q-19,20.08-42.1,29.61T260,739q-18.21-.54-27.16-10.32t0-28.79q9-19,39.93-46.18t92.9-61.93q6-16.83,8.69-39.66A283.1,283.1,0,0,0,376,505.64,211.06,211.06,0,0,0,368.92,460q-6-22-17.66-37.48a63.38,63.38,0,0,0-30.15-22q-18.48-6.51-44.55.55-7.6,35.31-16.29,74.15T244,553.45q-7.62,39.39-13,77.69t-7.06,72.52q-.56,9.78-6.79,14.94t-15.49,4.62q-9.78-.56-12-20.37t.82-50.26q3-30.4,9.23-66.82T213,516q7-33.41,13-59.48t8.15-36.4q-8.7-.54-16.84,5.16a44,44,0,0,1-15.76,7.34c-4,.73-6.52-.28-7.6-3s-.19-5.16,2.71-7.34q42.38-35.29,76.6-48.07T333.6,366a75,75,0,0,1,43.74,24.17Q395,409.76,404,438.28t9.77,63.56a306.12,306.12,0,0,1-6.79,70.9q10.86-4.35,23.36-9.78T455.29,552.64ZM242.88,699.31q-7.06,10.86-2.72,17.93t15.22,8.42q10.86,1.35,26.07-3.8t30.7-19q15.48-13.86,28.79-37t19.83-57.31q-10.33,5.43-27.17,16T299.11,647.7A401.69,401.69,0,0,0,266,673.78Q250.49,687.36,242.88,699.31Z"/><path class="cls-3" d="M608.67,557.43q2.05,1,1.65,2.67-2.07,9.46-8.23,24.88a238.54,238.54,0,0,1-14.8,30.43,143.14,143.14,0,0,1-18.71,25.91q-10.08,10.89-19.94,10.89-10.7,0-16-8.42t-7.2-21.39a162.51,162.51,0,0,1-1.23-29q.62-16,2.06-31T529.1,535q1.44-12.35,1-18.51c-.27-1.36-.61-2.12-1-2.26s-.75.49-1,1.85A183.06,183.06,0,0,1,520.47,541a232.1,232.1,0,0,1-13.16,29.2,118.43,118.43,0,0,1-16.65,24.05q-9.06,9.87-18.1,8.64-7-.82-12.75-8.84a65.55,65.55,0,0,1-9.25-19.95,135.45,135.45,0,0,1-4.73-26.31,122.72,122.72,0,0,1,.83-28.38,90.08,90.08,0,0,1,6.16-21,70.32,70.32,0,0,1,11.93-19.12A51.16,51.16,0,0,1,482,466.35q9.87-4.53,22.21-2.88a34.76,34.76,0,0,1,11.51,3.91A62.57,62.57,0,0,1,528.49,477a49.22,49.22,0,0,0,.41-6,38.66,38.66,0,0,1,.41-5.56q1.23-4.93,6-5.55a18.35,18.35,0,0,1,10.08,1.85,110.62,110.62,0,0,1,12.13,7.2,16.76,16.76,0,0,1,6,7,25.74,25.74,0,0,1,1.65,9.87c0,4-.15,9.25-.42,15.83q-.82,12.75-2,27.55t-2.47,28q-1.23,13.17-2.47,23.44T556,594.23q-2.88,25.08-1.44,34.75t5.55,8.43q4.11-1.23,8.64-6.58a84,84,0,0,0,8.63-12.54q4.11-7.2,7.61-14.39t5.55-11.72q.4-1.23,2.88-6.58t5.14-11.52q2.67-6.17,7.2-16.44C606.34,556.81,607.3,556.75,608.67,557.43Zm-81.83-63.12q2.88-11.51-3.49-15.83t-15.63-.21q-9.25,4.13-18.3,17.27t-11.51,36.6q-3.3,30.43-1.65,43.38t6,13.37q4.31.42,10.69-9.25a168.32,168.32,0,0,0,12.75-24.06q6.36-14.39,12.13-31.05T526.84,494.31Z"/><path class="cls-3" d="M699.55,560.51q3.29-5.75,6.37-3.08c2.06,1.79,2.27,4.59.62,8.43q-3.3,7.39-9.46,18.92A252.81,252.81,0,0,1,682.9,608a197.25,197.25,0,0,1-17.69,22.2,85.63,85.63,0,0,1-19.53,16.25q-9.87,5.74-19.53,4.93t-18.3-11.51a35.67,35.67,0,0,1-5.55-10.49A70.05,70.05,0,0,1,599,615.62a140.41,140.41,0,0,1-1.24-15,103.67,103.67,0,0,1,.62-14.6c.28-2.47.69-6.71,1.24-12.75s1.16-12.75,1.85-20.15,1.57-15.14,2.67-23.23,2.26-15.63,3.49-22.62a143.63,143.63,0,0,1,4.12-17.68c1.5-4.79,3.08-7.61,4.72-8.43a24.62,24.62,0,0,1,9.87-4.32q5.34-1,11.11,6,2.46,4.93,1.44,17.07T635.4,527q-2.46,15-5.14,31.46A261.45,261.45,0,0,0,627,589.3q-.62,14.38,1.85,24.47t10.28,12.54q5.76,2.06,12.75-2.67t14.6-14a263.77,263.77,0,0,0,16-22Q690.91,574.92,699.55,560.51Zm-51.81-96.22c-.28,1.38-2.26,2.47-6,3.29a42.1,42.1,0,0,1-11.92.82,27.39,27.39,0,0,1-11.1-2.88q-4.74-2.46-3.5-8.22,1.63-7.4,3.29-12.95a173.55,173.55,0,0,0,3.7-17.07q-.4-4.11,5.55-7a27.09,27.09,0,0,1,12.75-2.67,18.1,18.1,0,0,1,11.72,4.52q4.93,4.32,2.06,14.6-2.07,7-3.5,13.78T647.74,464.29Z"/><path class="cls-3" d="M811,562.57c1.09-1.91,3.08-2.74,6-2.47s3.63,2.2,2.26,5.76q-5.76,14.4-10.9,29.4T797,623.84q-11.12,25.08-26.53,33.93t-30.22,4.11q-14.81-4.74-26.94-21.8t-17.06-43.79A230,230,0,0,1,693,551.67q.42-24,3.08-48.31t7.2-47.7q4.51-23.45,9-43T720.93,379q4.11-14.18,6.17-20.35c0-1.92,1.5-3.56,4.52-4.94a30,30,0,0,1,10.28-2.46,41.05,41.05,0,0,1,10.9.61c3.43.69,5.41,1.85,6,3.5q2.47,2.88,1.24,12.34a185.42,185.42,0,0,1-4.73,22.61q-3.49,13.17-7.61,28.17t-7,29q-8.24,39.88-10.49,72.58t-2.26,54.07a132.67,132.67,0,0,0,2.88,28.38,109.74,109.74,0,0,0,7.61,23.23,56.17,56.17,0,0,0,10.69,16q6,6,12.13,6.37,5.76.4,11.1-4.52a57.08,57.08,0,0,0,10.08-13,124.47,124.47,0,0,0,8.63-18.1q3.91-10.08,7.61-19.74t6.58-17.88A52.57,52.57,0,0,1,811,562.57Z"/><path class="cls-3" d="M965,537.82c1.38-1.66,2.84-2.49,4.36-2.49a5.09,5.09,0,0,1,3.74,1.46,4.82,4.82,0,0,1,1.45,3.52,6.66,6.66,0,0,1-1.66,4.15q-5,5.82-11.62,14.11t-13.28,17q-6.65,8.71-12.45,16t-8.72,11a350.78,350.78,0,0,1-1.45,38.6q-1.87,21.17-5.81,42.54t-9.75,41.7a220.27,220.27,0,0,1-13.28,35.69q-12.87,26.14-28.22,35.28t-27.19,4.15q-11.82-5-17.22-22T826,735.36a231.49,231.49,0,0,1,13.9-36.1q8.92-18.68,18.88-35.28t19.51-29.88A208.73,208.73,0,0,1,894,614.18q0-2.07-.42-12T892.77,581q-.42-11.21-1.66-29.46-2.91,8.31-6.64,19.5t-8.3,21.79a92.64,92.64,0,0,1-10.58,18.68q-6,8.09-13.07,11t-15.56-1q-8.52-4-18.47-18.47a122.14,122.14,0,0,1-16.6-36.73,149.33,149.33,0,0,1-5.81-39.84q0-18.87,5.6-31.54T819.32,483q9.12.84,13.28,6.85t3.32,14.73q-3.74,29.48-2.7,47.73t5.19,27.39q4.14,9.13,10.37,9.54t12.66-5.6q6.43-6,12.45-18a128.15,128.15,0,0,0,9.75-27.81q1.65-6.23,2.28-18.05A115.22,115.22,0,0,1,889,498q2.49-10,8.09-14.94t17.22,2.08q5.39,3.33,7.89,11.62a96.18,96.18,0,0,1,3.32,20.75q.83,12.45.83,28.63t.83,35.28q8.71-9.54,19.09-21.79T965,537.82ZM894.85,632Q865,668.54,851.69,699.88T836.33,752q-2.08,20.76,4.36,28.22t16.39-4.35q10-11.83,20.75-45.65t17-95.25Z"/><path class="cls-12" d="M1099.4,926.35,1119,994.44q8.58-7.32,16.77-15.08Z"/><path class="cls-13" d="M1039.22,1035.16,980.87,832.37q-4.86-16.89,12-21.76l50.7-14.59q16.89-4.86,27,10l52.84,76.83-24.31-84.49q-4.86-16.9,12-21.76L1161.9,762q16.89-4.86,21.76,12l30.41,105.72A431,431,0,0,0,1271,665c0-239.14-193.86-433-433-433a431.11,431.11,0,0,0-195.78,46.69q8.53,6.84,16.54,14.31c2.28-.06,4.56-.11,6.86-.11,96.7,0,180.31,58.4,220.1,143.17,91.12,8.76,162.43,87.37,162.43,183.06,0,101.55-80.31,183.88-179.38,183.88-94.77,0-429.2,1-441,1A433.88,433.88,0,0,0,573.7,1008l59.54,4.72q17.53,1.38,18.28-8.08.65-8.05-16.89-9.45l-35.06-2.78q-70.11-5.55-63.81-85.14,6.19-78.18,76.32-72.62L717.25,843q17.54,1.39,16.14,18.92l-2.78,35.06q-1.38,17.53-18.92,16.14l-70.11-5.56q-17.54-1.38-18.17,6.68-.75,9.46,16.78,10.85l35.06,2.78q70.11,5.56,63.92,83.74-3.93,49.56-32.61,66.1a434.18,434.18,0,0,0,338.63-32.37C1042.54,1043.12,1040.54,1039.75,1039.22,1035.16Zm-141.68,55.16-17.46,2.15q-105.2,8.88-119.75-109.28l-12.9-104.71q-2.14-17.44,15.31-19.6l52.35-6.45q17.46-2.14,19.61,15.31l12.89,104.71q4.26,34.56,29.78,31.77,27.18-3.71,22.93-38.26L887.05,861.29q-1.8-17.49,15.31-19.6l52.35-6.45q17.46-2.15,19.61,15.3l12.89,104.72Q1001.61,1072.19,897.54,1090.32Z"/></svg>