<?xml version="1.0" encoding="UTF-8" standalone="no"?>
<svg width="477px" height="880px" viewBox="0 0 477 880" version="1.1" xmlns="http://www.w3.org/2000/svg" xmlns:xlink="http://www.w3.org/1999/xlink">
    <!-- Generator: Sketch 3.8.3 (29802) - http://www.bohemiancoding.com/sketch -->
    <title>iphone copy</title>
    <desc>Created with Sketch.</desc>
    <defs>
        <path d="M401,213 L401,751.904483 C401,782.885182 375.883562,808 344.909124,808 L60.0908759,808 C29.1127405,808 4,782.876282 4,751.904483 L4,282 L2.67515231,282 C1.73889004,282 0.979899497,281.243433 0.979899497,280.293648 L0.979899497,228.706352 C0.979899497,227.76396 1.73312785,227 2.67515231,227 L4,227 L4,213 L2.67515231,213 C1.73889004,213 0.979899497,212.243433 0.979899497,211.293648 L0.979899497,159.706352 C0.979899497,158.76396 1.73312785,158 2.67515231,158 L4,158 L4,123 L2.67515231,123 C1.73889004,123 0.979899497,122.239227 0.979899497,121.294186 L0.979899497,95.7058145 C0.979899497,94.7637191 1.73312785,94 2.67515231,94 L4,94 L4,56.0955168 C4,25.1148183 29.1164376,0 60.0908759,0 L344.909124,0 C375.887259,0 401,25.1237184 401,56.0955168 L401,158 L402.322335,158 C403.258597,158 404.017588,158.756567 404.017588,159.706352 L404.017588,211.293648 C404.017588,212.23604 403.26436,213 402.322335,213 L401,213 Z" id="path-1"></path>
        <filter x="-50%" y="-50%" width="200%" height="200%" filterUnits="objectBoundingBox" id="filter-2">
            <feOffset dx="31" dy="31" in="SourceAlpha" result="shadowOffsetOuter1"></feOffset>
            <feGaussianBlur stdDeviation="17" in="shadowOffsetOuter1" result="shadowBlurOuter1"></feGaussianBlur>
            <feComposite in="shadowBlurOuter1" in2="SourceAlpha" operator="out" result="shadowBlurOuter1"></feComposite>
            <feColorMatrix values="0 0 0 0 0   0 0 0 0 0   0 0 0 0 0  0 0 0 0.117781929 0" type="matrix" in="shadowBlurOuter1" result="shadowMatrixOuter1"></feColorMatrix>
            <feOffset dx="17" dy="19" in="SourceAlpha" result="shadowOffsetOuter2"></feOffset>
            <feGaussianBlur stdDeviation="13" in="shadowOffsetOuter2" result="shadowBlurOuter2"></feGaussianBlur>
            <feComposite in="shadowBlurOuter2" in2="SourceAlpha" operator="out" result="shadowBlurOuter2"></feComposite>
            <feColorMatrix values="0 0 0 0 0   0 0 0 0 0   0 0 0 0 0  0 0 0 0.18079144 0" type="matrix" in="shadowBlurOuter2" result="shadowMatrixOuter2"></feColorMatrix>
            <feOffset dx="3" dy="5" in="SourceAlpha" result="shadowOffsetOuter3"></feOffset>
            <feGaussianBlur stdDeviation="6" in="shadowOffsetOuter3" result="shadowBlurOuter3"></feGaussianBlur>
            <feComposite in="shadowBlurOuter3" in2="SourceAlpha" operator="out" result="shadowBlurOuter3"></feComposite>
            <feColorMatrix values="0 0 0 0 0   0 0 0 0 0   0 0 0 0 0  0 0 0 0.165081522 0" type="matrix" in="shadowBlurOuter3" result="shadowMatrixOuter3"></feColorMatrix>
            <feMerge>
                <feMergeNode in="shadowMatrixOuter1"></feMergeNode>
                <feMergeNode in="shadowMatrixOuter2"></feMergeNode>
                <feMergeNode in="shadowMatrixOuter3"></feMergeNode>
            </feMerge>
        </filter>
        <mask id="mask-3" maskContentUnits="userSpaceOnUse" maskUnits="objectBoundingBox" x="0" y="0" width="403.037688" height="808" fill="white">
            <use xlink:href="#path-1"></use>
        </mask>
    </defs>
    <g id="Page-1" stroke="none" stroke-width="1" fill="none" fill-rule="evenodd">
        <g id="cloudcast" transform="translate(-584.000000, -192.000000)">
            <g id="iphone-copy" transform="translate(592.000000, 199.000000)">
                <g id="Combined-Shape">
                    <use fill="black" fill-opacity="1" filter="url(#filter-2)" xlink:href="#path-1"></use>
                    <use stroke-opacity="0.0507246377" stroke="#000000" mask="url(#mask-3)" stroke-width="13.6" stroke-linecap="round" stroke-linejoin="round" fill="#FFFFFF" fill-rule="evenodd" xlink:href="#path-1"></use>
                </g>
            </g>
        </g>
    </g>
</svg>