<svg width="58" height="58" viewBox="0 0 58 58" fill="none" xmlns="http://www.w3.org/2000/svg">
<g clip-path="url(#clip0)">
<path d="M52.6374 12.2602C52.6364 12.2415 52.6343 12.2228 52.6312 12.2042C52.5587 12.1007 52.4696 12.0115 52.3949 11.91C51.8534 11.1724 51.2802 10.4624 50.6752 9.77995C50.5095 9.59347 50.3436 9.40905 50.1738 9.22669C49.5508 8.55956 48.8974 7.92339 48.2137 7.31841C48.0873 7.20647 47.9691 7.09053 47.8428 6.98066C46.1576 5.537 44.3125 4.29112 42.3436 3.26765C42.2648 3.22625 42.182 3.19104 42.1012 3.14952C41.2243 2.70396 40.3253 2.30343 39.4075 1.94977C39.2002 1.87523 39.0117 1.80469 38.8149 1.74253C37.9985 1.44836 37.1697 1.19073 36.3285 0.969651C36.0798 0.903362 35.8312 0.83501 35.5784 0.776977C34.7496 0.584303 33.9208 0.437157 33.0733 0.316964C32.8164 0.279692 32.5636 0.229915 32.3045 0.198834C30.1218 -0.0664409 27.9149 -0.0664409 25.732 0.198834C25.4731 0.229915 25.2203 0.279692 24.9633 0.316964C24.1158 0.437157 23.2787 0.584303 22.4581 0.776977C22.2054 0.83501 21.9567 0.903362 21.7081 0.969651C20.8613 1.19061 20.0325 1.44824 19.2217 1.74253C19.0144 1.81295 18.8259 1.88348 18.6291 1.94977C17.7114 2.30343 16.8122 2.70383 15.9354 3.14952C15.8546 3.19092 15.7718 3.22613 15.693 3.26765C13.7175 4.29002 11.8662 5.53579 10.1751 6.98066C10.0487 7.09041 9.9306 7.20647 9.80421 7.31841C9.11352 7.92618 8.46011 8.56235 7.84409 9.22669C7.67424 9.40905 7.50839 9.59347 7.34267 9.77995C6.73624 10.4609 6.16296 11.1709 5.62294 11.9099C5.54839 12.0114 5.45928 12.1005 5.38668 12.2041C5.37721 12.2222 5.36883 12.2409 5.36179 12.2601C-1.78498 22.2758 -1.78498 35.7241 5.36179 45.7397C5.36883 45.7589 5.37709 45.7776 5.38668 45.7957C5.45916 45.8993 5.54827 45.9884 5.62294 46.0899C6.16308 46.8276 6.73624 47.5376 7.34267 48.22C7.50839 48.4065 7.67424 48.5909 7.84409 48.7732C8.46848 49.4404 9.12178 50.0765 9.80421 50.6815C9.9306 50.7935 10.0487 50.9094 10.1751 51.0193C11.8602 52.4629 13.7054 53.7088 15.6743 54.7323C15.7531 54.7737 15.8359 54.8089 15.9167 54.8504C16.7935 55.296 17.6925 55.6965 18.6104 56.0502C18.8176 56.1247 19.0062 56.1952 19.203 56.2574C20.0193 56.5516 20.8482 56.8092 21.6894 57.0303C21.938 57.0966 22.1867 57.1649 22.4395 57.223C23.2683 57.4156 24.097 57.5628 24.9446 57.683C25.2015 57.7202 25.4542 57.77 25.7133 57.8011C27.8961 58.0664 30.1029 58.0664 32.2858 57.8011C32.5448 57.77 32.7976 57.7202 33.0546 57.683C33.902 57.5628 34.7391 57.4156 35.5597 57.223C35.8125 57.1649 36.0611 57.0966 36.3098 57.0303C37.1579 56.8093 37.9868 56.5517 38.7962 56.2574C39.0034 56.187 39.192 56.1164 39.3888 56.0502C40.3065 55.6965 41.2056 55.2961 42.0825 54.8504C42.1633 54.809 42.2461 54.7738 42.3249 54.7323C44.2938 53.7087 46.1389 52.4629 47.8241 51.0193C47.9504 50.9094 48.0686 50.7935 48.195 50.6815C48.8856 50.0751 49.5391 49.439 50.1551 48.7732C50.3249 48.5909 50.4908 48.4065 50.6565 48.22C51.2629 47.5376 51.8362 46.8276 52.3762 46.0899C52.4508 45.9884 52.5399 45.8993 52.6125 45.7957C52.622 45.7776 52.6303 45.7589 52.6374 45.7397C59.7842 35.7242 59.7842 22.2759 52.6374 12.2602ZM50.2732 16.1806C52.2548 19.4441 53.4514 23.1232 53.7687 26.9281H41.3573C41.2053 24.4592 40.8168 22.0107 40.197 19.616C43.7029 18.9594 47.0963 17.8024 50.2732 16.1806ZM34.2813 4.70767C34.3974 4.73462 34.5092 4.77189 34.6252 4.79884C35.367 4.97294 36.1026 5.17181 36.8216 5.42045C36.9315 5.45772 37.0392 5.50131 37.147 5.54064C37.8598 5.78928 38.5621 6.06488 39.2501 6.36949C39.3703 6.42546 39.4885 6.48762 39.6087 6.54359C40.2675 6.85718 40.9112 7.19628 41.5398 7.56098L41.9541 7.81169C42.5508 8.1764 43.1311 8.5666 43.6946 8.98242C43.8397 9.08805 43.9847 9.18967 44.1277 9.30561C44.6802 9.71997 45.2093 10.1641 45.7148 10.6379C45.8474 10.7581 45.9842 10.8763 46.1148 11.0006C46.6452 11.5041 47.1507 12.0365 47.6398 12.5877C47.7019 12.6602 47.7682 12.7265 47.8304 12.795C45.0248 14.132 42.0526 15.0868 38.9932 15.6336C37.5759 11.7374 35.7037 8.02209 33.4154 4.56489C33.7032 4.61661 33.9974 4.64563 34.2813 4.70767ZM20.7966 26.928C20.96 24.6861 21.3417 22.4655 21.9362 20.2976C24.2839 20.5765 26.646 20.7148 29.0101 20.712C31.3765 20.7112 33.7408 20.5694 36.0903 20.2872C36.6837 22.4585 37.0633 24.6827 37.2236 26.928H20.7966ZM37.2236 31.0722C37.0602 33.3141 36.6785 35.5347 36.084 37.7026C33.7363 37.4237 31.3742 37.2854 29.01 37.2882C26.6438 37.2855 24.2796 37.4238 21.9299 37.7026C21.3371 35.5346 20.9576 33.3139 20.7964 31.0722H37.2236V31.0722ZM29.01 5.48686C31.368 8.82884 33.3074 12.4474 34.7848 16.2614C32.8667 16.4651 30.9391 16.5675 29.01 16.5681C27.0832 16.5658 25.1576 16.4628 23.2415 16.2593C24.7207 12.4479 26.6578 8.83054 29.01 5.48686ZM10.3826 12.5856C10.8696 12.0344 11.3772 11.5019 11.9076 10.9984C12.0381 10.8741 12.1749 10.7559 12.3075 10.6357C12.8186 10.1703 13.3477 9.72616 13.8947 9.30342C14.0377 9.19355 14.1826 9.09618 14.3277 8.98024C14.8913 8.56587 15.4715 8.17555 16.0682 7.8095L16.4826 7.5588C17.1111 7.19142 17.7548 6.85221 18.4137 6.5414C18.5339 6.48544 18.652 6.42327 18.7722 6.36731C19.4601 6.0565 20.1626 5.78091 20.8754 5.53846C20.983 5.49912 21.0826 5.45554 21.2006 5.41826C21.9196 5.17788 22.6511 4.97901 23.397 4.79666C23.5131 4.7697 23.6249 4.73243 23.743 4.70754C24.0269 4.64538 24.3211 4.61637 24.6091 4.56453C22.3199 8.02233 20.447 11.7384 19.0291 15.6353C15.9698 15.0885 12.9975 14.1337 10.192 12.7967C10.2541 12.7243 10.3204 12.658 10.3826 12.5856ZM7.74696 16.1806C10.9231 17.8023 14.3158 18.9593 17.8211 19.616C17.2021 22.0108 16.8142 24.4593 16.6629 26.9281H4.25152C4.56888 23.1232 5.76547 19.4441 7.74696 16.1806ZM7.74696 41.8197C5.76535 38.5562 4.56876 34.8771 4.25152 31.0722H16.6629C16.8149 33.5411 17.2034 35.9896 17.8232 38.3843C14.3173 39.0407 10.9238 40.1977 7.74696 41.8197ZM23.7389 53.2925C23.6228 53.2656 23.511 53.2283 23.3949 53.2013C22.6531 53.0272 21.9175 52.8284 21.1985 52.5797C21.0887 52.5425 20.981 52.4989 20.8732 52.4595C20.1604 52.2109 19.458 51.9353 18.77 51.6307C18.6498 51.5747 18.5317 51.5126 18.4115 51.4566C17.7526 51.143 17.1089 50.8039 16.4804 50.4392L16.066 50.1885C15.4693 49.8238 14.8891 49.4336 14.3255 49.0178C14.1805 48.9121 14.0355 48.8105 13.8925 48.6946C13.34 48.2802 12.8109 47.8361 12.3053 47.3622C12.1727 47.242 12.0359 47.1239 11.9054 46.9996C11.375 46.4961 10.8694 45.9636 10.3804 45.4124C10.3182 45.34 10.252 45.2737 10.1898 45.2052C12.9954 43.8681 15.9676 42.9134 19.0269 42.3666C20.4442 46.2628 22.3165 49.9781 24.6048 53.4353C24.3169 53.3837 24.0227 53.3547 23.7389 53.2925ZM29.01 52.5134C26.652 49.1715 24.7127 45.5529 23.2353 41.7389C27.0726 41.3259 30.9432 41.3259 34.7805 41.7389L34.7785 41.741C33.2995 45.5523 31.3624 49.1696 29.01 52.5134ZM47.6376 45.4146C47.1506 45.9658 46.643 46.4983 46.1126 47.0018C45.9821 47.1261 45.8452 47.2442 45.7127 47.3644C45.2015 47.8314 44.6724 48.2755 44.1255 48.6968C43.9825 48.8065 43.8375 48.9143 43.6924 49.0199C43.1289 49.4343 42.5487 49.8246 41.9519 50.1907L41.5376 50.4414C40.9104 50.8074 40.2667 51.1465 39.6065 51.4588C39.4863 51.5147 39.3681 51.5769 39.248 51.6329C38.5601 51.9437 37.8576 52.2193 37.1448 52.4617C37.0371 52.5011 36.9376 52.5446 36.8196 52.5819C36.1006 52.8223 35.3691 53.0212 34.6232 53.2035C34.5071 53.2305 34.3953 53.2677 34.2772 53.2926C33.9933 53.3548 33.699 53.3838 33.411 53.4356C35.6993 49.9784 37.5717 46.2631 38.9889 42.3669C42.0482 42.9137 45.0205 43.8685 47.826 45.2056C47.766 45.2759 47.6997 45.3421 47.6376 45.4146ZM50.2732 41.8197C47.0971 40.198 43.7043 39.041 40.1991 38.3843C40.8181 35.9895 41.206 33.541 41.3573 31.0722H53.7687C53.4513 34.8769 52.2547 38.5561 50.2732 41.8197Z" fill="#E6E4C0"/>
</g>
<defs>
<clipPath id="clip0">
<rect width="58" height="58" fill="white"/>
</clipPath>
</defs>
</svg>
